solid OpenSCAD_Model
  facet normal 0.634618 0.680451 0.366397
    outer loop
      vertex 39 0 2.38806e-15
      vertex 19.5 18.1865 2.38806e-15
      vertex 19.5 0 33.775
    endloop
  endfacet
  facet normal 0.634618 0.680451 0.366397
    outer loop
      vertex 19.5 18.1865 2.38806e-15
      vertex 9.75 9.09327 33.775
      vertex 19.5 0 33.775
    endloop
  endfacet
  facet normal 8.7963e-17 0.965616 0.259973
    outer loop
      vertex 19.5 18.1865 2.38806e-15
      vertex -19.5 18.1865 2.38806e-15
      vertex 9.75 9.09327 33.775
    endloop
  endfacet
  facet normal 8.33402e-17 0.965616 0.259973
    outer loop
      vertex -19.5 18.1865 2.38806e-15
      vertex -9.75 9.09327 33.775
      vertex 9.75 9.09327 33.775
    endloop
  endfacet
  facet normal -0.634618 0.680451 0.366397
    outer loop
      vertex -19.5 18.1865 2.38806e-15
      vertex -39 2.57176e-15 2.38806e-15
      vertex -9.75 9.09327 33.775
    endloop
  endfacet
  facet normal -0.634618 0.680451 0.366397
    outer loop
      vertex -39 2.57176e-15 2.38806e-15
      vertex -19.5 1.28588e-15 33.775
      vertex -9.75 9.09327 33.775
    endloop
  endfacet
  facet normal -0.634618 -0.680451 0.366397
    outer loop
      vertex -39 2.57176e-15 2.38806e-15
      vertex -19.5 -18.1865 2.38806e-15
      vertex -19.5 1.28588e-15 33.775
    endloop
  endfacet
  facet normal -0.634618 -0.680451 0.366397
    outer loop
      vertex -19.5 -18.1865 2.38806e-15
      vertex -9.75 -9.09327 33.775
      vertex -19.5 1.28588e-15 33.775
    endloop
  endfacet
  facet normal -8.7963e-17 -0.965616 0.259973
    outer loop
      vertex -19.5 -18.1865 2.38806e-15
      vertex 19.5 -18.1865 2.38806e-15
      vertex -9.75 -9.09327 33.775
    endloop
  endfacet
  facet normal -8.33402e-17 -0.965616 0.259973
    outer loop
      vertex 19.5 -18.1865 2.38806e-15
      vertex 9.75 -9.09327 33.775
      vertex -9.75 -9.09327 33.775
    endloop
  endfacet
  facet normal 0.634618 -0.680451 0.366397
    outer loop
      vertex 19.5 -18.1865 2.38806e-15
      vertex 39 0 2.38806e-15
      vertex 9.75 -9.09327 33.775
    endloop
  endfacet
  facet normal 0.634618 -0.680451 0.366397
    outer loop
      vertex 39 0 2.38806e-15
      vertex 19.5 0 33.775
      vertex 9.75 -9.09327 33.775
    endloop
  endfacet
  facet normal 0.634618 0.680451 -0.366397
    outer loop
      vertex 19.5 0 -33.775
      vertex 9.75 9.09327 -33.775
      vertex 39 0 2.38806e-15
    endloop
  endfacet
  facet normal 0.634618 0.680451 -0.366397
    outer loop
      vertex 9.75 9.09327 -33.775
      vertex 19.5 18.1865 2.38806e-15
      vertex 39 0 2.38806e-15
    endloop
  endfacet
  facet normal 8.7963e-17 0.965616 -0.259973
    outer loop
      vertex 9.75 9.09327 -33.775
      vertex -9.75 9.09327 -33.775
      vertex 19.5 18.1865 2.38806e-15
    endloop
  endfacet
  facet normal 8.33402e-17 0.965616 -0.259973
    outer loop
      vertex -9.75 9.09327 -33.775
      vertex -19.5 18.1865 2.38806e-15
      vertex 19.5 18.1865 2.38806e-15
    endloop
  endfacet
  facet normal -0.634618 0.680451 -0.366397
    outer loop
      vertex -9.75 9.09327 -33.775
      vertex -19.5 1.28588e-15 -33.775
      vertex -19.5 18.1865 2.38806e-15
    endloop
  endfacet
  facet normal -0.634618 0.680451 -0.366397
    outer loop
      vertex -19.5 1.28588e-15 -33.775
      vertex -39 2.57176e-15 2.38806e-15
      vertex -19.5 18.1865 2.38806e-15
    endloop
  endfacet
  facet normal -0.634618 -0.680451 -0.366397
    outer loop
      vertex -19.5 1.28588e-15 -33.775
      vertex -9.75 -9.09327 -33.775
      vertex -39 2.57176e-15 2.38806e-15
    endloop
  endfacet
  facet normal -0.634618 -0.680451 -0.366397
    outer loop
      vertex -9.75 -9.09327 -33.775
      vertex -19.5 -18.1865 2.38806e-15
      vertex -39 2.57176e-15 2.38806e-15
    endloop
  endfacet
  facet normal -8.7963e-17 -0.965616 -0.259973
    outer loop
      vertex -9.75 -9.09327 -33.775
      vertex 9.75 -9.09327 -33.775
      vertex -19.5 -18.1865 2.38806e-15
    endloop
  endfacet
  facet normal -8.33402e-17 -0.965616 -0.259973
    outer loop
      vertex 9.75 -9.09327 -33.775
      vertex 19.5 -18.1865 2.38806e-15
      vertex -19.5 -18.1865 2.38806e-15
    endloop
  endfacet
  facet normal 0.634618 -0.680451 -0.366397
    outer loop
      vertex 9.75 -9.09327 -33.775
      vertex 19.5 0 -33.775
      vertex 19.5 -18.1865 2.38806e-15
    endloop
  endfacet
  facet normal 0.634618 -0.680451 -0.366397
    outer loop
      vertex 19.5 0 -33.775
      vertex 39 0 2.38806e-15
      vertex 19.5 -18.1865 2.38806e-15
    endloop
  endfacet
  facet normal 0 0 1
    outer loop
      vertex 9.75 9.09327 33.775
      vertex 9.75 -9.09327 33.775
      vertex 19.5 0 33.775
    endloop
  endfacet
  facet normal -0 0 1
    outer loop
      vertex -9.75 9.09327 33.775
      vertex 9.75 -9.09327 33.775
      vertex 9.75 9.09327 33.775
    endloop
  endfacet
  facet normal 0 0 1
    outer loop
      vertex -9.75 9.09327 33.775
      vertex -9.75 -9.09327 33.775
      vertex 9.75 -9.09327 33.775
    endloop
  endfacet
  facet normal 0 -0 1
    outer loop
      vertex -9.75 -9.09327 33.775
      vertex -9.75 9.09327 33.775
      vertex -19.5 1.28588e-15 33.775
    endloop
  endfacet
  facet normal 0 0 -1
    outer loop
      vertex 9.75 -9.09327 -33.775
      vertex 9.75 9.09327 -33.775
      vertex 19.5 0 -33.775
    endloop
  endfacet
  facet normal 0 0 -1
    outer loop
      vertex -9.75 -9.09327 -33.775
      vertex 9.75 9.09327 -33.775
      vertex 9.75 -9.09327 -33.775
    endloop
  endfacet
  facet normal 0 0 -1
    outer loop
      vertex -9.75 -9.09327 -33.775
      vertex -9.75 9.09327 -33.775
      vertex 9.75 9.09327 -33.775
    endloop
  endfacet
  facet normal 0 -0 -1
    outer loop
      vertex -9.75 9.09327 -33.775
      vertex -9.75 -9.09327 -33.775
      vertex -19.5 1.28588e-15 -33.775
    endloop
  endfacet
endsolid OpenSCAD_Model
